<svg xmlns="http://www.w3.org/2000/svg" xmlns:xlink="http://www.w3.org/1999/xlink" version="1.1" id="8ut3jjrknklayer_1" x="0px" y="0px" width="504.459px" height="504.37px" viewBox="0 0 504.459 504.37" enable-background="new 0 0 504.459 504.37" xml:space="preserve" isInit="true">
<g isInit="true">
	<g isInit="true">
		<circle fill="#ffcd00" cx="252.226" cy="252.216" r="246.568" origin_fill="#ffcd00" isInit="true"/>
	</g>
	<g opacity="0.2" isInit="true">
		<circle fill="#ffffff" cx="252.226" cy="252.216" r="246.568" origin_fill="#ffffff" isInit="true"/>
	</g>
	<path opacity="0.47" fill="#ffffff" enable-background="new    " d="M353.733,27.444L39.055,376.206   c0,0,36.387,47.427,44.458,55.809C99.158,416.365,416.508,68.352,416.508,68.352L353.733,27.444z" origin_fill="#ffffff" isInit="true"/>
	<polygon opacity="0.32" fill="#ffffff" enable-background="new    " points="27.777,354.427 336.152,20.305 307.423,11.854    18.056,329.611  " origin_fill="#ffffff" isInit="true"/>
	<polygon opacity="0.4" fill="#ffffff" enable-background="new    " points="154.909,478.822 471.203,138.789 482.33,163.454    186.956,490.045  " origin_fill="#ffffff" isInit="true"/>
	<g opacity="0.85" isInit="true">
		<circle fill="#ffffff" cx="252.226" cy="252.216" r="216.346" origin_fill="#ffffff" isInit="true"/>
	</g>
	<g isInit="true">
		<circle fill="#ffcd00" cx="252.226" cy="252.216" r="205.875" origin_fill="#ffcd00" isInit="true"/>
	</g>
	<g opacity="0.11" isInit="true">
		<circle fill="#774d01" cx="252.226" cy="252.216" r="205.875" origin_fill="#774d01" isInit="true"/>
	</g>
	<path fill="#774d01" d="M424.646,129.678c-24.797-34.646-59.561-61.308-99.535-76.087c-41.59-15.373-88.117-17.01-130.75-4.902   c-40.859,11.606-77.963,35.799-105.001,68.565c-27.724,33.595-44.575,75.029-48.017,118.465   c-3.476,43.855,7.077,88.504,29.924,126.105c21.956,36.131,54.828,65.539,93.377,82.969c40.583,18.347,86.28,23.492,129.95,14.698   c41.825-8.418,80.724-30.017,110.238-60.788c29.759-31.033,49.86-71.09,56.354-113.633c1.666-10.884,2.543-21.85,2.576-32.858   C463.625,208.5,450.128,165.278,424.646,129.678z M415.232,368.539c-23.356,32.84-56.98,58.407-94.91,72.033   c-39.352,14.135-82.725,15.679-122.954,4.254c-39.122-11.113-74.14-34.311-100.007-65.657   c-53.429-64.742-59.839-159.218-16.318-230.853c20.798-34.232,51.792-61.665,88.174-78.383   c38.104-17.507,81.94-22.354,122.991-13.954c81.104,16.597,144.848,83.399,157.861,165.111c1.637,10.291,2.337,20.714,2.37,31.126   C452.311,293.882,439.392,334.564,415.232,368.539z" origin_fill="#774d01" isInit="true"/>
	<path fill="#774d01" d="M457.776,106.045c-29.566-41.342-71.152-73.179-118.859-90.749C289.271-2.981,233.792-4.886,182.937,9.621   C134.159,23.542,89.941,52.496,57.714,91.667C24.856,131.609,4.869,180.875,0.777,232.449   c-4.152,52.341,8.417,105.562,35.67,150.446c26.2,43.147,65.469,78.232,111.503,99.022c48.391,21.856,102.95,27.96,155.001,17.411   c49.93-10.113,96.321-35.928,131.509-72.726c35.313-36.934,59.129-84.505,66.909-135.055c2.005-13.024,3.049-26.153,3.089-39.333   C504.319,200.052,488.161,148.522,457.776,106.045z M448.721,391.671c-27.916,39.411-68.023,70.197-113.401,86.765   c-47.53,17.349-100.063,19.391-148.763,5.628c-46.884-13.243-88.934-40.915-120.048-78.354   c-31.413-37.797-50.702-85.379-54.458-134.377c-3.839-50.066,7.876-100.542,33.851-143.55   c25.173-41.678,62.889-75.077,107.196-95.234c45.57-20.731,97.814-26.463,146.847-16.53c48.157,9.756,92.559,34.311,126.515,69.818   c33.916,35.467,56.306,80.952,63.898,129.419c1.913,12.222,2.746,24.594,2.783,36.96   C493.004,302.105,477.568,350.933,448.721,391.671z" origin_fill="#774d01" isInit="true"/>
	<path opacity="0.22" fill="#774d01" enable-background="new    " d="M417.698,134.613c-23.795-33.249-57.161-58.838-95.529-73.018   c-39.908-14.753-84.561-16.324-125.476-4.703c-39.213,11.138-74.819,34.358-100.77,65.8   c-26.607,32.242-42.78,72.007-46.082,113.692c-3.337,42.091,6.792,84.937,28.721,121.023   c21.067,34.671,52.619,62.896,89.614,79.621c38.948,17.61,82.804,22.549,124.714,14.109c40.138-8.083,77.466-28.804,105.79-58.337   c28.564-29.78,47.852-68.223,54.088-109.053c1.6-10.448,2.439-20.968,2.473-31.534   C455.107,210.258,442.152,168.779,417.698,134.613z M408.664,363.852c-22.412,31.513-54.684,56.056-91.08,69.132   c-37.764,13.563-79.395,15.045-118.001,4.08c-37.548-10.662-71.15-32.932-95.975-63.01   c-51.279-62.138-57.432-152.805-15.664-221.547c19.962-32.854,49.707-59.181,84.625-75.225   c36.568-16.803,78.638-21.454,118.036-13.394c77.835,15.929,139.01,80.034,151.496,158.458c1.578,9.874,2.241,19.877,2.274,29.869   C444.246,292.198,431.848,331.244,408.664,363.852z" origin_fill="#774d01" isInit="true"/>
	<path opacity="0.22" fill="#774d01" enable-background="new    " d="M78.562,294.022c0,0,4.624,53.188,86.715,67.43   c85.081,14.757,136.186,1.982,136.186,1.982s11.908,18.067,30.127,21.838c18.214,3.771,50.896,6.855,66.659-18.51   C414.02,341.398,78.562,294.022,78.562,294.022z" origin_fill="#774d01" isInit="true"/>
	<g isInit="true">
		<g isInit="true">
			<path fill="#ffcd00" d="M317.894,351.069c1.795-0.384,3.59-0.777,5.374-1.194c35.772-8.252,71.004-26.901,81.395-64.904     c10.747-39.319-7.969-78.752-41.081-101.338c-0.007-0.004-7.313-4.5-7.313-4.5c-0.438-15.679-1.444-38.604-18.045-51.316     c-27.827-21.296-57.681,0.188-62.83,25.925c-1.953-9.476-7.278-19.232-14.948-25.498c-7.755-6.332-18.67-7.607-28.268-6.527     c-28.292,3.17-38.021,41.973-39.341,58.245c-17.022,5.455-34.448,9.848-50.881,16.976     c-34.747,15.067-66.272,45.702-60.091,87.011c5.877,39.249,43.784,61.986,80.046,68.156     C212.608,360.733,267.274,361.831,317.894,351.069z" origin_fill="#ffcd00" isInit="true"/>
		</g>
		<path fill="#774d01" d="M120.478,257.767c-0.155,3.549-2.86,6.32-6.05,6.191c-3.199-0.133-5.665-3.114-5.514-6.675    c0.147-3.542,2.862-6.31,6.054-6.185C118.157,251.231,120.621,254.221,120.478,257.767z" origin_fill="#774d01" isInit="true"/>
		<path fill="#774d01" d="M141.67,258.338c0.192,3.545-2.243,6.553-5.419,6.729c-3.198,0.174-5.941-2.565-6.137-6.107    c-0.194-3.557,2.233-6.563,5.431-6.737C138.729,252.05,141.469,254.784,141.67,258.338z" origin_fill="#774d01" isInit="true"/>
		<path fill="#774d01" d="M233.233,148.276c6.085,2.558,12.176,5.112,18.287,7.607c1.139,0.465,2.914,0.081,3.923-0.512    c1.058-0.619,2.064-1.828,2.344-3.044c0.295-1.305,0.232-2.768-0.516-3.925c-0.767-1.19-1.747-1.813-3.045-2.341    c-6.11-2.499-12.203-5.049-18.286-7.607c-1.129-0.476-2.924-0.074-3.925,0.512c-1.058,0.619-2.064,1.832-2.341,3.044    c-0.298,1.308-0.234,2.768,0.514,3.925C230.958,147.129,231.94,147.734,233.233,148.276L233.233,148.276z" origin_fill="#774d01" isInit="true"/>
		<path fill="#774d01" d="M316.965,138.454c-6.07,2.631-12.097,5.377-18.074,8.215c-2.411,1.143-3.229,4.795-1.825,6.97    c1.6,2.484,4.39,3.055,6.97,1.828c5.979-2.834,12.001-5.584,18.075-8.216c1.087-0.472,2.041-1.957,2.336-3.048    c0.34-1.22,0.185-2.842-0.512-3.925c-0.704-1.087-1.747-2.045-3.048-2.34C319.464,137.613,318.292,137.878,316.965,138.454    L316.965,138.454z" origin_fill="#774d01" isInit="true"/>
		<path opacity="0.57" fill="#ffffff" enable-background="new    " d="M228.929,122.277c0,0-19.287,19.28-19.367,61.278    c-0.007,3.343-2.301,6.236-5.547,7.04c-26.216,6.501-85.058,17.632-120.501,65.344c9.259-20.054,17.006-53.019,109.321-75.973    C196.742,160.236,202.18,127.644,228.929,122.277z" origin_fill="#ffffff" isInit="true"/>
		<path opacity="0.57" fill="#ffffff" enable-background="new    " d="M92.7,281.447c0,0,11.138,59.729,108.391,75.692    c-39.181-5.034-104.544-5.233-120.008-75.692c-0.207-2.252,0.306-3.623,0.306-3.623L92.7,281.447z" origin_fill="#ffffff" isInit="true"/>
		<path opacity="0.57" fill="#ffffff" enable-background="new    " d="M82.087,262.138c0,0,21.406,9.937,97.498,14.179    c22.878,1.161,69.919,1.161,104.621-3.21c2.573-0.513,8.743-1.803,8.743-1.803s-0.141-6.21,2.886-7.346    c3.025-1.135,7.791-3.1,10.807,5.592c3.015,8.694-2.223,11.289-24.023,14.617s-98.402,10.371-204.053-9.984    C79.85,268.738,82.087,262.138,82.087,262.138z" origin_fill="#ffffff" isInit="true"/>
		<path fill="#774d01" d="M394.651,207.088c-9.029-12.705-20.411-22.501-33.385-30.798c-0.401-11.249-1.378-22.678-5.661-33.182    c-5.223-12.819-15.443-22.648-28.66-27.049c-20.839-6.937-41.552,4.998-51.459,23.028c-3.494-6.771-8.437-12.808-14.765-16.917    c-9.406-6.11-22.343-7.19-33.118-4.839c-18.2,3.977-28.914,21.483-34.579,37.866c-2.336,6.752-3.929,13.781-4.819,20.88    c-28.608,8.975-57.605,16.597-81.061,36.326c-19.965,16.796-33.44,41.338-30.809,67.968c2.619,26.529,19.188,47.998,41.753,61.311    c25.271,14.909,55.096,18.178,83.791,20.622c39.167,3.335,78.848,1.758,117.371-6.325c31.866-6.87,65.089-20.787,82.224-50.247    C419.386,274.923,414.908,235.586,394.651,207.088z M386.809,309.196c-17.264,21.439-44.188,31.336-70.271,36.956    c-31.567,6.627-63.93,8.603-96.117,7.165c-16.253-0.726-32.483-2.304-48.571-4.743c-12.283-1.865-24.355-4.375-35.847-9.236    c-21.554-9.115-41.18-25.59-47.558-48.861c-6.673-24.333,2.435-48.304,20.017-65.531c23.501-23.028,55.364-30.407,85.734-40.074    c2.305-0.737,3.54-2.584,3.739-4.913c1.379-15.94,7.101-34.421,19.011-45.629c7.574-7.124,17.905-9.089,28.004-7.349    c14.129,2.433,22.569,14.831,25.536,28.111c1.08,4.835,8.772,4.887,9.83,0c5.09-23.592,30.156-39.249,52.02-25.207    c10.387,6.671,15.174,17.643,17.264,29.423c0.94,5.292,1.257,10.677,1.46,16.04c0.096,2.528-0.266,5.411,1.614,7.386    c1.01,1.069,2.683,1.817,3.906,2.569c19.991,12.31,35.902,31.214,42.614,53.933C406.158,262.815,402.439,289.784,386.809,309.196z    " origin_fill="#774d01" isInit="true"/>
		<polygon opacity="0.57" fill="#ffffff" enable-background="new    " points="123.203,282.468 128.604,306.602 107.438,282.217       " origin_fill="#ffffff" isInit="true"/>
		<path opacity="0.57" fill="#ffffff" enable-background="new    " d="M144.541,286.216c0,0,9.342,20.824,20.479,24.248    c1.456,0.602-3.684-24.849-3.684-24.849L144.541,286.216z" origin_fill="#ffffff" isInit="true"/>
		<path opacity="0.57" fill="#ffffff" enable-background="new    " d="M202.377,287.761c0,0,3.061,18.701,8.556,22.718    c-11.814-1.982-22.954-13.961-23.981-21.509C193.647,287.649,202.377,287.761,202.377,287.761z" origin_fill="#ffffff" isInit="true"/>
		<path opacity="0.57" fill="#ffffff" enable-background="new    " d="M253.272,286.839c0,0,2.403,17.519,5.827,25.243    c-13.46-5.439-26.904-23.968-26.904-23.968L253.272,286.839z" origin_fill="#ffffff" isInit="true"/>
		<g isInit="true">
			<path fill="#00352b" d="M256.825,306.786c0.012-0.004,0.019-0.004,0.026-0.004c0.015-0.008,0.029-0.015,0.052-0.025     c-0.093-0.012-0.17-0.016-0.232,0.015C256.711,306.782,256.763,306.79,256.825,306.786z" origin_fill="#00352b" isInit="true"/>
			<path fill="#774d01" d="M314.584,279.541c-1.15-0.567-2.227-1.253-3.259-2.001c-0.811-0.678-1.555-1.419-2.233-2.227     c-0.549-0.773-1.028-1.588-1.438-2.447c-0.31-0.829-0.545-1.677-0.703-2.55c-0.008-0.114-0.033-0.226-0.026-0.34     c0.029-2.664-2.366-5.215-5.094-5.093c-2.786,0.121-5.063,2.236-5.097,5.093c-0.019,1.57,0.313,3.232,0.773,4.732     c0.029,0.097,0.07,0.181,0.1,0.276c-27.061,6.248-54.839,8.168-82.59,8.024c-28.982-0.151-58.027-1.969-86.84-5.083     c-14.986-1.621-29.924-3.686-44.731-6.523c-6.407-1.228-9.151,8.592-2.709,9.83c7.034,1.345,14.104,2.535,21.195,3.593     c4.288,7.431,8.912,15.078,15.017,21.134c2.927,2.897,6.76,5.854,11.109,5.725c5.045-0.147,8.702-4.969,11.446-8.632     c1.238-1.647,2.34-3.406,3.442-5.168c3.82,6.049,8.477,11.735,14.07,15.815c3.872,2.823,8.571,4.242,13.091,2.127     c4.295-2.013,7.504-6.122,10.316-9.797c1.638-2.138,3.181-4.356,4.627-6.642c1.701,2.112,3.505,4.15,5.352,6.114     c3.411,3.627,7.185,7.408,11.529,9.915c3.835,2.211,7.669,2.207,11.337-0.357c3.964-2.771,7.224-6.483,10.209-10.254     c1.88-2.37,3.771-4.836,5.47-7.412c3.735,4.242,7.657,8.349,11.993,11.957c3.295,2.742,6.794,5.311,10.886,6.715     c3.201,1.102,6.625,1.271,9.713-0.254c4.91-2.418,8.758-7.316,12.148-11.455c4.431-5.418,8.507-11.102,12.671-16.719     c5.702-1.032,11.39-2.178,17.021-3.549c1.799,1.695,3.859,3.158,6.067,4.249c1.23,0.612,2.562,0.889,3.925,0.513     c1.184-0.324,2.466-1.238,3.045-2.341C317.624,284.211,317.127,280.806,314.584,279.541z M127.146,301.597     c-0.015,0.004-0.025,0.004-0.037,0.007c0.029-0.019,0.048-0.036,0.079-0.048c0.019-0.004,0.052-0.004,0.076-0.004     c-0.006,0-0.006,0.004-0.009,0.004C127.226,301.567,127.215,301.574,127.146,301.597z M127.082,301.607     c-0.286,0.066-0.508,0.011,0.083-0.052C127.139,301.574,127.11,301.589,127.082,301.607z M132.692,295.091     c-0.597,0.889-1.22,1.759-1.85,2.625c-0.113,0.158-0.144,0.206-0.17,0.243c-0.029,0.029-0.064,0.066-0.181,0.21     c-0.377,0.449-0.748,0.906-1.141,1.345c-0.569,0.635-1.178,1.221-1.804,1.795c-0.011,0.012-0.026,0.022-0.037,0.033l0,0     c-0.129-0.048-0.251-0.1-0.321-0.14c-0.344-0.195-0.665-0.417-0.997-0.63c-0.061-0.045-0.122-0.085-0.181-0.13     c-0.71-0.674-1.469-1.286-2.156-1.986c-0.667-0.674-1.305-1.382-1.924-2.101c-0.299-0.347-0.594-0.7-0.883-1.051     c-0.147-0.181-0.295-0.357-0.442-0.538c0.015,0.019-0.389-0.493-0.511-0.645c-0.066-0.093-0.134-0.181-0.142-0.191     c-0.144-0.192-0.288-0.38-0.431-0.571c-0.332-0.45-0.66-0.903-0.984-1.36c-0.647-0.907-1.281-1.824-1.9-2.75     c-0.58-0.869-1.124-1.762-1.686-2.639c7.133,0.907,14.286,1.695,21.445,2.381C135.235,291.07,134.011,293.115,132.692,295.091z      M165.493,306.73c-0.004,0-0.004,0-0.004-0.004c0.083-0.015,0.105-0.019,0.242-0.044     C165.612,306.708,165.561,306.72,165.493,306.73z M173.927,297.727c-0.426,0.615-0.861,1.224-1.307,1.828     c0.028-0.033-0.49,0.648-0.617,0.825c-1.544,1.979-3.232,3.859-5.134,5.492c-0.166,0.114-0.686,0.512-0.822,0.59     c-0.194,0.117-0.428,0.191-0.62,0.25c-0.201-0.073-0.663-0.247-0.781-0.276c-0.339-0.169-0.68-0.335-1.004-0.534     c-0.434-0.262-0.854-0.553-1.265-0.852c-0.094-0.096-0.962-0.792-1.063-0.885c-2.106-1.864-3.982-3.987-5.729-6.188     c-1.749-2.201-3.594-4.932-5.304-7.767c4.858,0.388,9.715,0.749,14.573,1.069c4.214,0.28,8.438,0.53,12.666,0.763     c-0.393,0.66-0.737,1.346-1.144,1.994C175.584,295.283,174.77,296.518,173.927,297.727z M206.85,307.019     c-0.021,0.011-0.042,0.025-0.061,0.036C206.702,307.059,206.735,307.033,206.85,307.019z M217.438,296.061     c-1.985,2.687-5.025,6.347-8.003,9.07c-0.317,0.288-0.643,0.567-0.967,0.848c-0.076,0.063-0.155,0.129-0.234,0.191     c-0.306,0.203-0.623,0.388-0.936,0.571c-0.645-0.391-1.287-0.777-1.902-1.216c-0.136-0.1-0.476-0.354-0.588-0.438     c-0.393-0.317-0.781-0.638-1.167-0.962c-1.754-1.5-3.42-3.107-5.027-4.766c-2.178-2.245-4.095-4.39-5.87-6.616     c8.901,0.336,17.808,0.523,26.71,0.49C218.798,294.192,218.122,295.136,217.438,296.061z M268.476,294.656     c-1.843,2.344-3.737,4.662-5.749,6.866c-0.818,0.896-1.662,1.78-2.536,2.624c-0.397,0.384-0.804,0.756-1.209,1.121     c-0.191,0.177-0.391,0.343-0.586,0.505c-0.092,0.073-0.136,0.114-0.162,0.14c-0.044,0.029-0.07,0.045-0.122,0.081     c-0.342,0.24-0.703,0.45-1.054,0.679c-0.077,0.052-0.1,0.052-0.162,0.085c0.033,0.003,0.052-0.012,0.081,0     c-0.015-0.004-0.081,0.015-0.125,0.025c-0.008,0.004-0.008,0.004-0.015,0.008c-0.004,0-0.008,0-0.012,0     c-0.077,0.018-0.121,0.029-0.188,0.051c-0.008-0.007-0.026-0.015-0.037-0.021c0.019-0.019,0.033-0.033,0.066-0.048     c-0.019-0.004-0.059,0.003-0.073-0.008c-0.03-0.025-0.185-0.037-0.34-0.044c-0.372-0.104-0.773-0.166-1.135-0.276     c-0.266-0.081-0.52-0.188-0.781-0.27c-0.601-0.302-1.198-0.59-1.78-0.921c-0.739-0.424-1.46-0.889-2.162-1.379     c-1.083-0.752-1.239-0.881-1.839-1.382c-3.577-2.985-6.868-6.284-10.023-9.708c5.54-0.236,11.078-0.538,16.601-0.999     c5.669-0.472,11.315-1.135,16.943-1.887C270.887,291.494,269.707,293.09,268.476,294.656z" origin_fill="#774d01" isInit="true"/>
		</g>
		<path opacity="0.23" fill="#774d01" enable-background="new    " d="M338.224,127.82c0,0,9.476,31.417,1.246,57.637    c15.94,10.795,43.705,33.672,49.101,57.319c5.396,23.647,1.544,60.667-29.302,84.826c0,0,25.962-3.833,34.528-17.124    c8.565-13.294,20.684-33.48,11.543-67.941c-9.141-34.465-39.216-58.149-49.071-63.401    C355.134,162.064,347.77,129.306,338.224,127.82z" origin_fill="#774d01" isInit="true"/>
		<g isInit="true">
			<path fill="#ffcd00" d="M336.152,376.206c-12.413-2.606-23.897-9.336-27.716-22.232c-2.731-9.211-3.392-20.124,2.211-28.42     c2.831-4.188,6.977-7.453,11.677-9.299c1.098-0.428,9.608-2.43,9.611-2.407c-1.4-8.617-0.324-18.646,2.993-26.703     c3.841-9.332,13.615-16.924,23.677-10.677c5.3,3.295,7.942,9.914,6.686,15.974c-1.297,6.262-6.833,14.588-3.811,18.948     c1.976,2.845,12.446,9.671,17.434,12.616c7.268,4.29,18.244,8.558,21.045,17.216c5.418,16.74-9.87,30.558-24.591,33.853     c-11.426,2.562-23.691,3.446-35.316,1.81C338.751,376.703,337.45,376.475,336.152,376.206z" origin_fill="#ffcd00" isInit="true"/>
		</g>
		<path opacity="0.57" fill="#ffffff" enable-background="new    " d="M323.43,134.845L323.43,134.845    c-0.229-0.096-0.45-0.192-0.679-0.288c1.659,0.7,3.178,1.854,4.593,2.938c-0.191-0.147-0.38-0.295-0.571-0.442    c1.5,1.161,2.93,2.418,4.294,3.734c1.068,1.028,2.956,1.143,4.006,0c1.018-1.113,1.139-2.904,0-4.003    c-1.847-1.776-3.807-3.435-5.886-4.931c-0.988-0.715-2.02-1.394-3.104-1.954c-0.38-0.191-0.759-0.35-1.153-0.512    c-0.623-0.266-1.622-0.041-2.179,0.288c-0.59,0.343-1.149,1.013-1.305,1.692c-0.166,0.722-0.125,1.533,0.288,2.178    C322.161,134.208,322.707,134.543,323.43,134.845L323.43,134.845z" origin_fill="#ffffff" isInit="true"/>
		<path opacity="0.57" fill="#ffffff" enable-background="new    " d="M348.297,297.332c0-0.682,0.07-1.375,0.162-2.049    c-0.033,0.25-0.07,0.501-0.104,0.752c0.21-1.549,0.579-3.074,1.176-4.516c-0.092,0.225-0.185,0.45-0.283,0.675    c0.372-0.87,0.833-1.699,1.415-2.451c-0.147,0.191-0.295,0.38-0.442,0.571c0.056-0.066,0.11-0.137,0.162-0.202    c0.49-0.598,0.829-1.202,0.829-2.002c0-0.692-0.31-1.522-0.829-1.997c-1.036-0.955-3-1.224-4.006,0    c-1.688,2.06-2.754,4.507-3.27,7.116c-0.266,1.338-0.476,2.731-0.476,4.103c-0.004,1.479,1.301,2.897,2.831,2.831    C347.003,300.097,348.297,298.921,348.297,297.332L348.297,297.332z" origin_fill="#ffffff" isInit="true"/>
		<path opacity="0.57" fill="#ffffff" enable-background="new    " d="M237.396,159.926c0,0-10.167-2.407-14.28,4.622    c-4.115,7.025-5.462,19.516,8.579,23.467C245.733,191.966,237.396,159.926,237.396,159.926z" origin_fill="#ffffff" isInit="true"/>
		<path opacity="0.57" fill="#ffffff" enable-background="new    " d="M308.775,159.926c0,0-10.165-2.407-14.278,4.622    c-4.113,7.025-5.462,19.516,8.58,23.467C317.112,191.966,308.775,159.926,308.775,159.926z" origin_fill="#ffffff" isInit="true"/>
		<g isInit="true">
			<path fill="#774d01" d="M235.211,160.188c-8.046,1.596-13.289,9.958-10.635,19.154c2.903,10.062,15.524,13.821,22.969,6.255     C256.91,176.073,249.119,157.435,235.211,160.188z" origin_fill="#774d01" isInit="true"/>
		</g>
		<g isInit="true">
			<path fill="#774d01" d="M310.5,159.938c2.72,0.103,5.381,0.995,7.541,2.801c5.599,4.707,6.893,13.895,3.147,20.105     c-3.048,5.042-9.428,7.475-14.997,6.052c-6.313-1.61-10.084-6.97-10.346-13.486C295.511,167.021,302.001,159.62,310.5,159.938z" origin_fill="#774d01" isInit="true"/>
		</g>
		<path opacity="0.57" fill="#ffffff" enable-background="new    " d="M335.876,317.479c0,0-20.312,6.269-15.167,32.23    c5.146,25.962,15.451,26.497,15.451,26.497s-29.18-0.866-29.766-31.034C305.797,315.009,335.876,317.479,335.876,317.479z" origin_fill="#ffffff" isInit="true"/>
		<path opacity="0.23" fill="#774d01" enable-background="new    " d="M368.737,317.434c0,0,10.578,9.41,13.663,23.541    c3.081,14.134-12.716,31.476-42.349,35.913c18.414,0.626,39.945,5.005,56.7-15.712    C413.508,340.458,368.737,317.434,368.737,317.434z" origin_fill="#774d01" isInit="true"/>
		<path fill="#774d01" d="M400.7,332.553c-5.112-5.979-12.587-9.06-19.218-12.944c-2.812-1.651-5.554-3.424-8.252-5.256    c-1.78-1.201-6.498-3.594-7.618-5.809c0.184,0.081,0.129-1.29,0.21-1.566c0.295-0.995,0.53-2.001,0.858-2.996    c0.586-1.759,1.316-3.461,1.957-5.197c1.566-4.231,2.488-8.418,1.722-12.937c-1.452-8.569-8.48-15.564-17.176-16.586    c-9.365-1.098-17.68,5.426-21.778,13.435c-4.246,8.308-5.528,17.876-4.917,27.152c-4.938,1.209-9.623,2.9-13.762,6.155    c-6.34,4.99-9.937,12.093-11.035,19.807c-0.059,0.299-0.096,0.597-0.104,0.903c-0.214,1.864-0.339,3.756-0.266,5.665    c0.361,9.376,3.155,18.878,9.502,25.95c6.188,6.907,15.074,10.811,23.976,12.79c10.526,2.082,21.259,2.082,31.87,0.648    c8.705-1.18,17.212-3.074,24.524-8.187C404.013,364.606,412.254,346.075,400.7,332.553z M388.054,363.206    c-5.978,5.171-13.346,7.08-20.982,8.289c-9.689,1.53-19.913,1.703-29.563-0.206c-6.649-1.475-13.235-3.933-18.186-8.798    c-4.408-4.338-6.66-10.287-7.467-16.368c1.901,0.748,3.87,1.346,5.786,1.857c4.095,1.095,8.286,1.74,12.48,2.285    c1.197,0.155,2.793-0.682,3.604-1.492c0.884-0.885,1.548-2.333,1.488-3.604c-0.059-1.316-0.486-2.684-1.488-3.604    c-1.062-0.978-2.183-1.309-3.604-1.489c-0.026-0.004-0.118-0.015-0.214-0.029c-0.081-0.016-0.159-0.026-0.185-0.03    c-0.42-0.063-0.841-0.121-1.257-0.188c-0.922-0.144-1.839-0.299-2.753-0.472c-1.438-0.27-2.871-0.571-4.294-0.929    c-2.2-0.546-4.331-1.242-6.45-2.046c-0.077-0.033-0.147-0.063-0.225-0.096c-0.361-0.166-0.723-0.347-1.084-0.527    c-0.486-0.247-0.95-0.526-1.415-0.811c1.231-5.094,4.062-9.561,8.941-12.479c3.575-2.142,8.057-2.894,12.104-3.712    c2.931-0.593,3.93-3.7,3.557-6.27c-1.128-7.839-0.324-16.792,3.041-24.038c2.684-5.771,8.846-11.605,15.458-7.968    c13.813,7.596-5.765,24.111,2.532,34.509c3.269,4.099,8.528,7.103,12.866,9.926c4.905,3.191,10.103,5.79,15.119,8.775    c5.352,3.185,9.723,6.862,10.087,13.489C396.299,353.591,392.742,359.148,388.054,363.206z" origin_fill="#774d01" isInit="true"/>
	</g>
</g>
</svg>